<svg width="60" height="60" viewBox="0 0 60 60" fill="none" xmlns="http://www.w3.org/2000/svg">
<g id="logo">
<path id="lare-circle" d="M59.0729 37.4004C57.8559 42.1814 55.4786 46.5886 52.1515 50.2314C48.8245 53.8742 44.6503 56.6403 39.9989 58.2847C35.3475 59.929 30.3623 60.4008 25.485 59.6583C20.6076 58.9158 15.9887 56.9819 12.0373 54.0279C8.08587 51.0739 4.92396 47.191 2.83163 42.7232C0.739288 38.2553 -0.21889 33.3404 0.0419641 28.4138C0.302819 23.4872 1.77465 18.7009 4.3271 14.479C6.87954 10.2571 10.4338 6.72977 14.6751 4.20957L30 30L59.0729 37.4004Z" fill="#C4C4C4"/>
<circle id="mini-circle" cx="30" cy="30" r="15" fill="#C0FF02"/>
<line id="middle-line" x1="36.0416" y1="30.5" x2="24" y2="30.5" stroke="black"/>
</g>
</svg>
