<svg width="40" height="40" viewBox="0 0 40 40" fill="none" xmlns="http://www.w3.org/2000/svg">
<g id="logo">
<path id="lare-circle" d="M39.3819 24.9336C38.5706 28.121 36.9857 31.0591 34.7677 33.4876C32.5496 35.9162 29.7669 37.7602 26.6659 38.8564C23.565 39.9527 20.2415 40.2672 16.99 39.7722C13.7384 39.2772 10.6591 37.9879 8.02486 36.0186C5.39058 34.0493 3.28264 31.4607 1.88775 28.4821C0.492859 25.5035 -0.145927 22.2269 0.0279761 18.9425C0.201879 15.6581 1.1831 12.4673 2.88473 9.65265C4.58636 6.83803 6.95587 4.48651 9.78338 2.80638L20 20L39.3819 24.9336Z" fill="#C4C4C4"/>
<circle id="mini-circle" cx="20" cy="20" r="10" fill="#C0FF02"/>
<line id="middle-line" x1="24.0277" y1="20.5" x2="16" y2="20.5" stroke="black"/>
</g>
</svg>
